<?xml version="1.0" standalone="no"?>
<!DOCTYPE svg PUBLIC "-//W3C//DTD SVG 20010904//EN"
 "http://www.w3.org/TR/2001/REC-SVG-20010904/DTD/svg10.dtd">
<svg version="1.0" xmlns="http://www.w3.org/2000/svg"
 width="16.000000pt" height="16.000000pt" viewBox="0 0 16.000000 16.000000"
 preserveAspectRatio="xMidYMid meet">
<metadata>
Created by potrace 1.11, written by Peter Selinger 2001-2013
</metadata>
<g transform="translate(0.000000,16.000000) scale(0.006250,-0.006250)"
fill="#000000" stroke="none">
<path d="M1161 2544 c-41 -7 -88 -20 -105 -27 -17 -8 -42 -18 -56 -22 -88 -26
-229 -131 -299 -222 -35 -46 -85 -159 -76 -173 3 -5 1 -11 -4 -14 -5 -3 -7
-50 -6 -103 3 -118 27 -197 89 -292 62 -95 134 -164 313 -297 303 -225 378
-282 423 -320 217 -187 290 -305 285 -464 -3 -97 -10 -122 -47 -193 -54 -101
-160 -182 -288 -222 -72 -22 -227 -27 -308 -10 -199 41 -332 190 -358 400 -10
87 -17 106 -46 130 -23 19 -37 24 -61 19 -42 -7 -56 -22 -56 -59 0 -17 1 -124
2 -238 l2 -208 38 -39 c71 -70 282 -154 452 -178 65 -9 259 -8 310 1 22 4 49
9 60 11 111 21 299 118 389 201 130 120 193 270 191 450 -2 108 -7 138 -41
233 -53 147 -195 319 -401 482 -10 8 -40 33 -67 54 -46 37 -189 144 -236 176
-65 44 -211 161 -252 202 -117 116 -148 231 -93 343 76 156 309 254 507 214
159 -31 269 -138 284 -275 4 -32 8 -63 8 -69 5 -35 59 -76 91 -70 11 2 23 4
27 4 4 1 15 12 24 26 14 22 17 51 15 177 -2 169 -8 187 -68 237 -142 117 -416
175 -642 135z"/>
</g>
</svg>
